# xmcd
#
# Track frame offsets:
#	150
#	18877
#	37437
#	51520
#	71210
#	94700
#	112715
#	137457
#	156435
#	183370
#	191925
#	201752
#	216995
#	225072
#
# Disc length: 4453 seconds
#
# Revision: 3
# Processed by: cddbd v1.5.2PL0 Copyright (c) Steve Scherf et al.
# Submitted via: audiograbber 1.83.01
#
DISCID=c711630e
DTITLE=Various Artist - Hi Disk 3
DYEAR=1900
DGENRE=Blues
TTITLE0=Willy Fulton - You're Gonna Need Me
TTITLE1=J. Cruska, P. Gordon - The higher you rise
TTITLE2=Amanda McBroom - The Rose
TTITLE3=The Power of Seven - California Blues
TTITLE4=Harry James - The Footstomper
TTITLE5=Freeway Philharmonic - Cruise Control
TTITLE6=Clair Marlo - Where You Are
TTITLE7=Michael Ruff - The Eyes of Love
TTITLE8=Pat Coil - So You Say
TTITLE9=Margie Gibson - The Song Is Ended
TTITLE10=The McNeely-Levin-Skinner Band - Pinnacle Mountain Breakdown
TTITLE11=Karl Ulrich Schnabel and  Joan Rowland - 4 Laendler by Schubert
TTITLE12=The Madrigals of SBHS - Cantate Domino
TTITLE13=Dimitri Kitayenko and Moscow Philharmonic - Copland's Appalachian Spring
EXTD=
EXTT0=
EXTT1=
EXTT2=
EXTT3=
EXTT4=
EXTT5=
EXTT6=
EXTT7=
EXTT8=
EXTT9=
EXTT10=
EXTT11=
EXTT12=
EXTT13=
PLAYORDER=
